<svg width="100" height="100" viewBox="0 0 100 100" fill="none" xmlns="http://www.w3.org/2000/svg">
<g clip-path="url(#clip0_104_3)">
<rect width="100" height="100" rx="20" fill="#1C1C1C"/>
<path d="M24.4375 78L22 71.0232C26.9167 69.5825 31.2083 68.1213 34.875 66.6395C38.5833 65.1165 41.7917 63.4495 44.5 61.6384C47.25 59.7861 49.625 57.6663 51.625 55.2789C53.6667 52.8916 55.4375 50.1132 56.9375 46.9438C58.4792 43.7743 59.9167 40.111 61.25 35.9537L70 36.4476C68.4583 41.3458 66.75 45.6883 64.875 49.4752C63.0417 53.262 60.9167 56.6167 58.5 59.5391C56.125 62.4204 53.3333 64.9724 50.125 67.1951C46.9583 69.4179 43.25 71.3936 39 73.1224C34.7917 74.8512 29.9375 76.477 24.4375 78ZM75.5625 78C69.0625 76.1889 63.4375 74.2132 58.6875 72.0728C53.9792 69.9324 49.9375 67.4627 46.5625 64.6637C43.1875 61.8236 40.2917 58.5307 37.875 54.785C35.4583 50.9982 33.3333 46.5733 31.5 41.5105L39.25 39.4112C40.5 42.91 41.875 46.0382 43.375 48.796C44.9167 51.5127 46.6875 53.9618 48.6875 56.1433C50.6875 58.2837 53.0417 60.2183 55.75 61.9471C58.5 63.6759 61.6875 65.2811 65.3125 66.763C68.9792 68.2036 73.2083 69.6237 78 71.0232L75.5625 78ZM22.3125 37.559V30.3969H45.75V22H54.25V30.3969H77.6875V37.559H22.3125Z" fill="white"/>
</g>
<defs>
<clipPath id="clip0_104_3">
<rect width="100" height="100" fill="white"/>
</clipPath>
</defs>
</svg>
